<?xml version="1.0" encoding="UTF-8"?>
<svg width="679px" height="159px" viewBox="0 0 679 159" version="1.1" xmlns="http://www.w3.org/2000/svg" xmlns:xlink="http://www.w3.org/1999/xlink">
    <title>logo-dark</title>
    <g id="riss" stroke="none" stroke-width="1" fill="none" fill-rule="evenodd">
        <g id="logo-dark" transform="translate(-173, -115)" fill="#F0EEED">
            <g transform="translate(173, 115)" id="Shape">
                <path d="M427,103.5 C440.254834,103.5 451,92.754834 451,79.5 C451,66.245166 440.254834,55.5 427,55.5 C413.745166,55.5 403,66.245166 403,79.5 C403,92.754834 413.745166,103.5 427,103.5 Z M655,103.5 C668.254834,103.5 679,92.754834 679,79.5 C679,66.245166 668.254834,55.5 655,55.5 C641.745166,55.5 631,66.245166 631,79.5 C631,92.754834 641.745166,103.5 655,103.5 Z M469.75,15.75 C473.892514,15.75 477.642821,17.429239 480.357346,20.1441424 L480.397714,20.1037743 C495.598286,35.3047257 505,56.3044189 505,79.5 C505,102.695959 495.59798,123.695959 480.39697,138.89697 L480.356602,138.856602 C477.642136,141.571068 473.892136,143.25 469.75,143.25 C461.465729,143.25 454.75,136.534271 454.75,128.25 C454.75,123.691369 456.783544,119.607697 459.99298,116.856635 C469.288365,107.157378 475,93.9957009 475,79.5 C475,65.0042991 469.288365,51.842622 459.992839,42.142714 C456.783544,39.3923032 454.75,35.3086314 454.75,30.75 C454.75,22.4657288 461.465729,15.75 469.75,15.75 Z M612.25,15.75 C608.107486,15.75 604.357179,17.429239 601.642654,20.1441424 L601.602286,20.1037743 C586.401714,35.3047257 577,56.3044189 577,79.5 C577,102.695959 586.40202,123.695959 601.60303,138.89697 L601.643398,138.856602 C604.357864,141.571068 608.107864,143.25 612.25,143.25 C620.534271,143.25 627.25,136.534271 627.25,128.25 C627.25,123.691369 625.216456,119.607697 622.00702,116.856635 C612.711635,107.157378 607,93.9957009 607,79.5 C607,65.0042991 612.711635,51.842622 622.007161,42.142714 C625.216456,39.3923032 627.25,35.3086314 627.25,30.75 C627.25,22.4657288 620.534271,15.75 612.25,15.75 Z M541,0 C554.254834,0 565,10.745166 565,24 C565,27.9503604 564.045583,31.6778048 562.354761,34.9643229 C562.43622,35.1125449 562.444159,35.2666882 562.372658,35.4264544 C556.349436,48.8851827 553,63.80144 553,79.5 C553,95.0965344 556.306041,109.920902 562.255562,123.31054 C562.321715,123.45942 562.301736,123.603308 562.202945,123.742121 C563.987624,127.099374 565,130.93146 565,135 C565,148.254834 554.254834,159 541,159 C527.745166,159 517,148.254834 517,135 C517,131.350797 517.814443,127.891817 519.271474,124.794915 C519.189489,124.687048 519.173665,124.573274 519.228438,124.453785 C525.502498,110.766704 529,95.5417947 529,79.5 C529,63.487566 525.515289,48.2890299 519.262859,34.6209341 C519.198855,34.4810171 519.205518,34.3472195 519.277433,34.2194987 C517.817075,31.1193502 517,27.6550941 517,24 C517,10.745166 527.745166,0 541,0 Z"></path>
                <path d="M60.6292116,15 C81.3398897,15 98.1292116,31.7893219 98.1292116,52.5 C98.1292116,73.2106781 81.3398897,90 60.6292116,90 L43.0505,90 L99.4765,147 L76.9805,147 L19.9554942,89.3015365 C16.4752517,85.7526767 16.530877,80.0544634 20.0797368,76.5742208 C21.7622341,74.9242547 24.0247536,74 26.3812733,74 L60.6292116,74 C72.5033337,74 82.1292116,64.3741221 82.1292116,52.5 C82.1292116,40.6258779 72.5033337,31 60.6292116,31 L16,31 L16,147 L0,147 L0,15 L60.6292116,15 Z M134.934373,15 L135,146.991765 L119.065627,147 L119,15.0082347 L134.934373,15 Z M196,13 C220.505302,13 241,29.3403669 241,50.5 L225,50.5 C225,39.0748328 212.363769,29 196,29 C179.636231,29 167,39.0748328 167,50.5 C167,57.4905178 171.774286,61.6721636 186.783213,67.7958068 L187.658337,68.1505176 C188.637883,68.5452813 189.666931,68.9530486 190.880776,69.4281141 L206.697254,75.5732976 C208.070572,76.1100289 209.222387,76.5659617 210.32622,77.0108442 L210.765605,77.1883732 C220.243133,81.0272586 226.273263,84.1786808 231.10229,88.3375653 C237.556025,93.8956911 241,100.895889 241,109.5 C241,130.659633 220.505302,147 196,147 C171.494698,147 151,130.659633 151,109.5 L167,109.5 C167,120.925167 179.636231,131 196,131 C212.363769,131 225,120.925167 225,109.5 C225,102.509482 220.225714,98.3278364 205.216787,92.2041932 L204.341663,91.8494824 C203.362117,91.4547187 202.333069,91.0469514 201.119224,90.5718859 L185.302746,84.4267024 C183.929428,83.8899711 182.777613,83.4340383 181.67378,82.9891558 L181.234395,82.8116268 C171.756867,78.9727414 165.726737,75.8213192 160.89771,71.6624347 C154.443975,66.1043089 151,59.1041111 151,50.5 C151,29.3403669 171.494698,13 196,13 Z M294,13 C318.505302,13 339,29.3403669 339,50.5 L323,50.5 C323,39.0748328 310.363769,29 294,29 C277.636231,29 265,39.0748328 265,50.5 C265,57.4905178 269.774286,61.6721636 284.783213,67.7958068 L285.658337,68.1505176 C286.637883,68.5452813 287.666931,68.9530486 288.880776,69.4281141 L304.697254,75.5732976 C306.070572,76.1100289 307.222387,76.5659617 308.32622,77.0108442 L308.765605,77.1883732 C318.243133,81.0272586 324.273263,84.1786808 329.10229,88.3375653 C335.556025,93.8956911 339,100.895889 339,109.5 C339,130.659633 318.505302,147 294,147 C269.494698,147 249,130.659633 249,109.5 L265,109.5 C265,120.925167 277.636231,131 294,131 C310.363769,131 323,120.925167 323,109.5 C323,102.509482 318.225714,98.3278364 303.216787,92.2041932 L302.341663,91.8494824 C301.362117,91.4547187 300.333069,91.0469514 299.119224,90.5718859 L283.302746,84.4267024 C281.929428,83.8899711 280.777613,83.4340383 279.67378,82.9891558 L279.234395,82.8116268 C269.756867,78.9727414 263.726737,75.8213192 258.89771,71.6624347 C252.443975,66.1043089 249,59.1041111 249,50.5 C249,29.3403669 269.494698,13 294,13 Z" fill-rule="nonzero"></path>
            </g>
        </g>
    </g>
</svg>